<svg width="29" height="29" viewBox="0 0 29 29" fill="none" xmlns="http://www.w3.org/2000/svg">
<g clip-path="url(#clip0_114_24797)">
<g clip-path="url(#clip1_114_24797)">
<path fill-rule="evenodd" clip-rule="evenodd" d="M6.77262 2.47217C6.12829 2.47217 5.60596 2.99451 5.60596 3.63884C5.60596 4.28317 6.12829 4.8055 6.77262 4.8055H7.93929V6.31268C7.93929 8.69796 9.3915 10.8429 11.6061 11.7288L14.506 12.8887C14.7841 12.9999 15.0944 12.9999 15.3725 12.8887L18.2724 11.7288C20.487 10.8429 21.9392 8.69796 21.9392 6.31268V4.8055H23.1059C23.7503 4.8055 24.2726 4.28317 24.2726 3.63884C24.2726 2.99451 23.7503 2.47217 23.1059 2.47217H6.77262ZM10.2726 4.8055V6.31268C10.2726 7.74385 11.1439 9.03083 12.4727 9.56235L14.9392 10.5489L17.4058 9.56235C18.7346 9.03083 19.6059 7.74385 19.6059 6.31268V4.8055H10.2726Z" fill="#6A7FFF"/>
<path d="M16.0492 13.7784C15.893 13.2977 15.4451 12.9722 14.9396 12.9722C14.4342 12.9722 13.9863 13.2977 13.8301 13.7784L12.7823 17.003H9.39184C8.88641 17.003 8.43846 17.3284 8.28228 17.8091C8.12609 18.2898 8.29719 18.8164 8.70609 19.1135L11.4491 21.1064L10.4014 24.331C10.2452 24.8117 10.4163 25.3383 10.8252 25.6354C11.234 25.9324 11.7877 25.9324 12.1966 25.6354L14.9396 23.6424L17.6826 25.6354C18.0915 25.9324 18.6452 25.9324 19.0541 25.6354C19.463 25.3383 19.6341 24.8117 19.4779 24.331L18.4302 21.1064L21.1732 19.1135C21.5821 18.8164 21.7532 18.2898 21.597 17.8091C21.4408 17.3284 20.9929 17.003 20.4875 17.003H17.0969L16.0492 13.7784Z" fill="#FB731D"/>
</g>
</g>
<defs>
<clipPath id="clip0_114_24797">
<rect width="28" height="28" fill="white" transform="translate(0.939941 0.140137)"/>
</clipPath>
<clipPath id="clip1_114_24797">
<rect width="28" height="28" fill="white" transform="translate(0.939941 0.140137)"/>
</clipPath>
</defs>
</svg>
