<svg width="40" height="41" viewBox="0 0 40 41" fill="none" xmlns="http://www.w3.org/2000/svg">
<rect y="0.140137" width="40" height="40" rx="10" fill="#EAF2FC"/>
<path d="M27.4497 23.5996C27.4315 23.5603 27.4144 23.5277 27.3987 23.5016C27.1374 23.0311 26.6381 22.4535 25.9011 21.7688L25.8856 21.753L25.8778 21.7453L25.8699 21.7374H25.8619C25.5275 21.4186 25.3157 21.2042 25.2269 21.0944C25.0647 20.8854 25.0283 20.6737 25.117 20.4593C25.1797 20.2972 25.4151 19.9551 25.8227 19.4323C26.0371 19.1552 26.2069 18.9332 26.3323 18.7659C27.2366 17.5636 27.6286 16.7953 27.5084 16.4608L27.4617 16.3826C27.4303 16.3355 27.3493 16.2925 27.2188 16.2532C27.0879 16.214 26.9207 16.2075 26.7168 16.2336L24.4587 16.2492C24.4222 16.2363 24.37 16.2375 24.3019 16.2532C24.234 16.2689 24.1999 16.2768 24.1999 16.2768L24.1607 16.2964L24.1294 16.32C24.1034 16.3356 24.0746 16.363 24.0432 16.4022C24.012 16.4413 23.9858 16.4872 23.965 16.5394C23.7192 17.1719 23.4396 17.7599 23.126 18.3035C22.9325 18.6277 22.7549 18.9086 22.5927 19.1464C22.4307 19.3842 22.2948 19.5593 22.1851 19.6716C22.0752 19.784 21.9761 19.8741 21.8871 19.9421C21.7982 20.0102 21.7303 20.0389 21.6834 20.0284C21.6363 20.0179 21.5919 20.0074 21.5499 19.997C21.4768 19.9499 21.418 19.8859 21.3736 19.8049C21.3291 19.7239 21.2991 19.6219 21.2834 19.4991C21.2678 19.3762 21.2586 19.2704 21.2559 19.1816C21.2535 19.0928 21.2546 18.9672 21.2599 18.8052C21.2654 18.6431 21.2678 18.5334 21.2678 18.4759C21.2678 18.2772 21.2717 18.0616 21.2794 17.829C21.2874 17.5964 21.2938 17.4121 21.2991 17.2763C21.3044 17.1404 21.3069 16.9966 21.3069 16.8451C21.3069 16.6935 21.2977 16.5746 21.2794 16.4883C21.2614 16.4021 21.2338 16.3185 21.1973 16.2374C21.1607 16.1564 21.107 16.0937 21.0366 16.0492C20.9661 16.0048 20.8783 15.9695 20.774 15.9433C20.4969 15.8806 20.1441 15.8467 19.7154 15.8414C18.7432 15.831 18.1186 15.8938 17.8415 16.0297C17.7318 16.0871 17.6324 16.1656 17.5436 16.2648C17.4495 16.3799 17.4364 16.4426 17.5043 16.453C17.818 16.5 18.04 16.6123 18.1707 16.7901L18.2178 16.8842C18.2545 16.9522 18.291 17.0724 18.3276 17.2449C18.3642 17.4174 18.3878 17.6081 18.3982 17.8171C18.4243 18.1988 18.4243 18.5254 18.3982 18.7972C18.372 19.0691 18.3473 19.2807 18.3237 19.4323C18.3001 19.5839 18.2648 19.7067 18.2178 19.8008C18.1707 19.8949 18.1394 19.9524 18.1237 19.9732C18.108 19.9941 18.0949 20.0073 18.0846 20.0124C18.0166 20.0385 17.946 20.0517 17.8728 20.0517C17.7996 20.0517 17.7108 20.0151 17.6063 19.9419C17.5018 19.8687 17.3933 19.7681 17.2809 19.64C17.1685 19.5119 17.0418 19.3329 16.9006 19.1029C16.7595 18.873 16.6131 18.6012 16.4615 18.2876L16.3361 18.0601C16.2577 17.9138 16.1506 17.7008 16.0147 17.4212C15.8787 17.1415 15.7585 16.8709 15.654 16.6096C15.6123 16.4998 15.5495 16.4162 15.4659 16.3587L15.4266 16.3352C15.4006 16.3143 15.3587 16.2921 15.3012 16.2685C15.2437 16.2449 15.1837 16.228 15.1209 16.2176L12.9726 16.2332C12.7531 16.2332 12.6041 16.2829 12.5257 16.3822L12.4943 16.4292C12.4786 16.4554 12.4707 16.4972 12.4707 16.5547C12.4707 16.6122 12.4864 16.6828 12.5178 16.7664C12.8314 17.5035 13.1724 18.2143 13.5409 18.899C13.9094 19.5838 14.2296 20.1353 14.5013 20.5532C14.7731 20.9714 15.0501 21.3662 15.3324 21.7371C15.6147 22.1083 15.8016 22.3462 15.893 22.4506C15.9845 22.5553 16.0564 22.6336 16.1087 22.6858L16.3047 22.874C16.4302 22.9994 16.6144 23.1497 16.8574 23.3248C17.1005 23.5 17.3697 23.6725 17.665 23.8425C17.9604 24.0121 18.304 24.1507 18.6961 24.2578C19.0881 24.3651 19.4697 24.4081 19.8408 24.3874H20.7425C20.9254 24.3716 21.0639 24.3141 21.1581 24.2148L21.1893 24.1755C21.2102 24.1443 21.2299 24.0958 21.248 24.0306C21.2663 23.9653 21.2755 23.8933 21.2755 23.8151C21.2701 23.5903 21.2872 23.3878 21.3263 23.2074C21.3654 23.0272 21.4099 22.8913 21.4598 22.7997C21.5095 22.7083 21.5657 22.6312 21.6283 22.5686C21.6909 22.5059 21.7356 22.468 21.7618 22.4549C21.7878 22.4417 21.8086 22.4328 21.8243 22.4274C21.9498 22.3856 22.0973 22.4261 22.2674 22.549C22.4373 22.6719 22.5966 22.8235 22.7457 23.0038C22.8947 23.1842 23.0737 23.3866 23.2828 23.6114C23.4919 23.8361 23.6748 24.0033 23.8316 24.1132L23.9884 24.2073C24.093 24.27 24.2289 24.3275 24.3962 24.3799C24.5632 24.4321 24.7095 24.4451 24.8351 24.419L26.8423 24.3877C27.0408 24.3877 27.1952 24.3548 27.3048 24.2896C27.4146 24.2243 27.4798 24.1523 27.5008 24.074C27.5218 23.9957 27.5229 23.9067 27.5049 23.8073C27.4862 23.7081 27.468 23.6388 27.4497 23.5996Z" fill="#71AAEB"/>
</svg>
