<svg width="40" height="41" viewBox="0 0 40 41" fill="none" xmlns="http://www.w3.org/2000/svg">
<rect y="0.140137" width="40" height="40" rx="10" fill="#FFD9D9"/>
<path d="M27.2192 16.1391C27.0457 15.494 26.5371 14.9855 25.8921 14.8118C24.7136 14.4893 20 14.4893 20 14.4893C20 14.4893 15.2864 14.4893 14.108 14.7995C13.4754 14.9731 12.9544 15.4941 12.7808 16.1391C12.4707 17.3174 12.4707 19.7611 12.4707 19.7611C12.4707 19.7611 12.4707 22.2171 12.7808 23.3831C12.9545 24.0281 13.463 24.5367 14.1081 24.7104C15.2988 25.0329 20.0001 25.0329 20.0001 25.0329C20.0001 25.0329 24.7136 25.0329 25.8921 24.7227C26.5371 24.549 27.0457 24.0404 27.2194 23.3954C27.5294 22.2171 27.5294 19.7735 27.5294 19.7735C27.5294 19.7735 27.5419 17.3174 27.2192 16.1391Z" fill="#FF0000"/>
<path d="M18.499 22.0191L22.4187 19.7615L18.499 17.5039V22.0191Z" fill="white"/>
</svg>
