<svg width="40" height="41" viewBox="0 0 40 41" fill="none" xmlns="http://www.w3.org/2000/svg">
<rect y="0.140137" width="40" height="40" rx="10" fill="#FEE8D9"/>
<path d="M15.4326 20.6885C15.048 21.4446 15.4847 21.806 16.4811 22.4234C17.3281 22.9467 18.4983 23.138 19.25 23.2147C18.9419 23.5107 20.3537 22.153 16.2878 26.0639C15.4257 26.8902 16.8136 28.2161 17.6751 27.4072L20.0073 25.1578C20.9002 26.0168 21.756 26.8401 22.3396 27.4104C23.2017 28.2223 24.589 26.9078 23.7363 26.067C23.6723 26.0062 20.5758 23.0358 20.7647 23.2178C21.5258 23.1412 22.6784 22.9385 23.5154 22.4265C24.5118 21.8059 24.9479 21.4446 24.5689 20.6885C24.3399 20.2593 23.7225 19.9004 22.9005 20.521C22.9005 20.521 21.7906 21.3712 20.0004 21.3712C18.2097 21.3712 17.1004 20.521 17.1004 20.521C16.279 19.8973 15.6591 20.2593 15.4326 20.6885Z" fill="#F96600"/>
<path d="M19.9995 20.2254C22.1818 20.2254 23.9638 18.52 23.9638 16.4206C23.9638 14.3123 22.1818 12.6069 19.9995 12.6069C17.8166 12.6069 16.0347 14.3123 16.0347 16.4206C16.0347 18.52 17.8166 20.2254 19.9995 20.2254ZM19.9995 14.5389C21.0718 14.5389 21.9466 15.3803 21.9466 16.4206C21.9466 17.4521 21.0718 18.2935 19.9995 18.2935C18.9272 18.2935 18.0526 17.4521 18.0526 16.4206C18.0519 15.3796 18.9266 14.5389 19.9995 14.5389Z" fill="#F96600"/>
</svg>
