<svg width="40" height="40" viewBox="0 0 40 40" fill="none" xmlns="http://www.w3.org/2000/svg">
<rect x="0.00390625" width="40" height="40" rx="10" fill="#E3F9E6"/>
<path d="M20.0068 12.9229H20.0033C16.1005 12.9229 12.9268 16.0975 12.9268 20.0011C12.9268 21.5495 13.4258 22.9846 14.2743 24.1499L13.3922 26.7795L16.1129 25.9097C17.2321 26.6512 18.5673 27.0794 20.0068 27.0794C23.9096 27.0794 27.0833 23.9039 27.0833 20.0011C27.0833 16.0983 23.9096 12.9229 20.0068 12.9229Z" fill="#43D854"/>
<path d="M24.126 22.9211C23.9552 23.4033 23.2775 23.8032 22.7369 23.92C22.367 23.9987 21.8839 24.0616 20.2577 23.3874C18.1776 22.5256 16.838 20.4118 16.7336 20.2747C16.6336 20.1375 15.8931 19.1554 15.8931 18.1397C15.8931 17.124 16.4089 16.6294 16.6168 16.417C16.7876 16.2427 17.0698 16.1631 17.3406 16.1631C17.4282 16.1631 17.5069 16.1675 17.5777 16.171C17.7856 16.1799 17.89 16.1923 18.0272 16.5205C18.1979 16.932 18.6138 17.9477 18.6633 18.0521C18.7138 18.1565 18.7642 18.2981 18.6934 18.4352C18.6271 18.5768 18.5687 18.6396 18.4643 18.7599C18.3598 18.8803 18.2608 18.9723 18.1563 19.1015C18.0608 19.2138 17.9528 19.3342 18.0732 19.5421C18.1935 19.7456 18.6094 20.4242 19.2216 20.9692C20.0117 21.6726 20.6523 21.8974 20.8815 21.9929C21.0522 22.0637 21.2557 22.0469 21.3805 21.9142C21.5389 21.7434 21.7344 21.4603 21.9335 21.1816C22.0751 20.9816 22.2538 20.9568 22.4414 21.0276C22.6325 21.094 23.6438 21.5939 23.8517 21.6974C24.0596 21.8018 24.1968 21.8514 24.2472 21.939C24.2967 22.0266 24.2967 22.438 24.126 22.9211Z" fill="white"/>
</svg>
